@startuml
class Member{
    {field} email: String
}
class BoardMember
class Event{
    {field} date: Date
    {field} description: String
    {method} assign(l: Location): void
}
class Conference{
    {field} max_atendees: Integer
}
class BoardMeeting
class Location{
    {field} description: String
    {field} address: String
}
class Person{
    {field} name: String
}

Event <|-- Conference
Event <|-- BoardMeeting

Person <|-- Member
Member <|-- BoardMember

AAUOC o-- "0...*" Person
AAUOC o-- "0...*" Event
AAUOC o-- "0...*" Location

Event "0...*" -- "1" Location : isLocated In
Event "0...*" -- "0...*" Member : attendsTo
Conference "0...*" -- "0...*" Person : attendsTo
BoardMeeting "0...*" -- "0...*" BoardMember : attendsTo

AAUOC : newLocation(l: Location): void
AAUOC : newEvent(e: Event): void
AAUOC : newPerson(p: Person): void
AAUOC : informEvent(e: Event): void
AAUOC : register(m: Member, e: Event): void

@enduml